<?xml version="1.0" encoding="UTF-8" standalone="no"?>
<!-- Created with Inkscape (http://www.inkscape.org/) -->

<svg
   width="110.35097mm"
   height="69.861969mm"
   viewBox="0 0 110.35097 69.861969"
   version="1.1"
   id="svg1"
   xml:space="preserve"
   xmlns:inkscape="http://www.inkscape.org/namespaces/inkscape"
   xmlns:sodipodi="http://sodipodi.sourceforge.net/DTD/sodipodi-0.dtd"
   xmlns="http://www.w3.org/2000/svg"
   xmlns:svg="http://www.w3.org/2000/svg"><sodipodi:namedview
     id="namedview1"
     pagecolor="#505050"
     bordercolor="#eeeeee"
     borderopacity="1"
     inkscape:showpageshadow="0"
     inkscape:pageopacity="0"
     inkscape:pagecheckerboard="0"
     inkscape:deskcolor="#d1d1d1"
     inkscape:document-units="mm"
     inkscape:zoom="0.65260559"
     inkscape:cx="224.48474"
     inkscape:cy="110.32697"
     inkscape:window-width="1366"
     inkscape:window-height="715"
     inkscape:window-x="0"
     inkscape:window-y="0"
     inkscape:window-maximized="1"
     inkscape:current-layer="layer1" /><defs
     id="defs1" /><g
     inkscape:label="Camada 1"
     inkscape:groupmode="layer"
     id="layer1"
     transform="translate(-43.297262,-55.32788)"><g
       id="g1"
       transform="matrix(0.42231557,0,0,0.42231557,43.297262,46.881567)"><g
         id="SvgjsG1928"
         featurekey="symbolFeature-0"
         transform="matrix(2.9033309,0,0,2.9033309,-14.516654,-42.453548)"
         fill="#ffffff"><g
           id="g9"><g
             id="g8"><circle
               fill="none"
               cx="69.734001"
               cy="37.700001"
               r="5.1609998"
               id="circle1" /><circle
               fill="none"
               cx="42.002998"
               cy="57.167"
               r="5.1599998"
               id="circle2" /><circle
               fill="none"
               cx="26.666"
               cy="72.158997"
               r="5.1599998"
               id="circle3" /><circle
               fill="none"
               cx="51.84"
               cy="27.84"
               r="5.1599998"
               id="circle4" /><ellipse
               fill="none"
               cx="26.666"
               cy="42.504002"
               rx="5.1589999"
               ry="5.1609998"
               id="ellipse4" /><path
               d="M 5.585,28.425 H 45.54 c 0.296,3.217 3.007,5.745 6.3,5.745 3.49,0 6.329,-2.839 6.329,-6.33 0,-3.49 -2.839,-6.329 -6.329,-6.329 -3.293,0 -6.003,2.528 -6.3,5.744 H 5.585 C 5.262,27.255 5,27.517 5,27.84 c 0,0.323 0.262,0.585 0.585,0.585 z M 51.84,22.68 c 2.845,0 5.16,2.315 5.16,5.16 0,2.845 -2.315,5.16 -5.16,5.16 -2.845,0 -5.16,-2.315 -5.16,-5.16 0,-2.845 2.314,-5.16 5.16,-5.16 z"
               id="path4" /><path
               d="m 42.004,63.497 c 3.49,0 6.33,-2.839 6.33,-6.329 0,-3.491 -2.839,-6.33 -6.33,-6.33 -3.293,0 -6.004,2.528 -6.3,5.745 H 5.585 C 5.262,56.583 5,56.844 5,57.168 c 0,0.323 0.262,0.584 0.585,0.584 h 30.118 c 0.297,3.217 3.007,5.745 6.301,5.745 z m 0,-11.49 c 2.845,0 5.16,2.315 5.16,5.16 0,2.845 -2.315,5.16 -5.16,5.16 -2.845,0 -5.16,-2.315 -5.16,-5.16 -10e-4,-2.845 2.314,-5.16 5.16,-5.16 z"
               id="path5" /><path
               d="M 94.415,64.318 H 65.202 c -0.155,0 -0.304,0.061 -0.413,0.171 l -7.086,7.084 H 32.965 c -0.296,-3.217 -3.007,-5.744 -6.3,-5.744 -3.489,0 -6.327,2.839 -6.327,6.329 0,3.491 2.838,6.331 6.327,6.331 3.293,0 6.004,-2.529 6.3,-5.746 h 24.98 c 0.155,0 0.304,-0.062 0.413,-0.171 l 7.086,-7.085 H 94.415 C 94.738,65.487 95,65.226 95,64.902 95,64.58 94.739,64.318 94.415,64.318 Z M 26.665,77.32 c -2.844,0 -5.158,-2.316 -5.158,-5.161 0,-2.845 2.314,-5.16 5.158,-5.16 2.845,0 5.16,2.315 5.16,5.16 0,2.846 -2.315,5.161 -5.16,5.161 z"
               id="path6" /><path
               d="M 94.415,54.483 H 65.641 L 53.246,42.091 C 53.137,41.981 52.988,41.92 52.833,41.92 H 32.965 c -0.296,-3.218 -3.007,-5.747 -6.3,-5.747 -3.489,0 -6.327,2.84 -6.327,6.332 0,3.491 2.838,6.33 6.327,6.33 3.293,0 6.004,-2.528 6.3,-5.745 h 19.626 l 12.394,12.392 c 0.11,0.109 0.258,0.171 0.414,0.171 h 29.016 c 0.323,0 0.585,-0.262 0.585,-0.585 0,-0.323 -0.261,-0.585 -0.585,-0.585 z m -67.75,-6.818 c -2.844,0 -5.158,-2.315 -5.158,-5.16 0,-2.846 2.314,-5.162 5.158,-5.162 2.845,0 5.16,2.316 5.16,5.162 0,2.845 -2.315,5.16 -5.16,5.16 z"
               id="path7" /><path
               d="m 69.734,44.031 c 3.293,0 6.004,-2.529 6.3,-5.746 H 94.415 C 94.738,38.285 95,38.023 95,37.7 95,37.377 94.739,37.115 94.415,37.115 H 76.034 c -0.296,-3.217 -3.007,-5.746 -6.3,-5.746 -3.49,0 -6.33,2.84 -6.33,6.331 10e-4,3.49 2.84,6.331 6.33,6.331 z m 0,-11.492 c 2.845,0 5.16,2.315 5.16,5.161 0,2.846 -2.315,5.161 -5.16,5.161 -2.845,0 -5.16,-2.315 -5.16,-5.161 0,-2.846 2.315,-5.161 5.16,-5.161 z"
               id="path8" /></g></g></g></g></g></svg>
