<svg
  viewBox="0 0 370 101.62123549637073"
  preserveAspectRatio="xMidYMid meet"
  class="css-8aabad"
  id="ehhhfaaf"
><defs id="SvgjsDefs1927"><linearGradient id="SvgjsLinearGradient1934"><stop
        id="SvgjsStop1935"
        stop-color="#616161"
        offset="0"
      /><stop id="SvgjsStop1936" stop-color="#e6e7e8" offset="0.5" /><stop
        id="SvgjsStop1937"
        stop-color="#616161"
        offset="1"
      /></linearGradient><linearGradient id="SvgjsLinearGradient1938"><stop
        id="SvgjsStop1939"
        stop-color="#616161"
        offset="0"
      /><stop id="SvgjsStop1940" stop-color="#e6e7e8" offset="0.5" /><stop
        id="SvgjsStop1941"
        stop-color="#616161"
        offset="1"
      /></linearGradient><linearGradient id="SvgjsLinearGradient1942"><stop
        id="SvgjsStop1943"
        stop-color="#616161"
        offset="0"
      /><stop id="SvgjsStop1944" stop-color="#e6e7e8" offset="0.5" /><stop
        id="SvgjsStop1945"
        stop-color="#616161"
        offset="1"
      /></linearGradient></defs><g
    id="SvgjsG1928"
    featurekey="symbolFeature-0"
    transform="matrix(1.1111110169210632,0,0,1.1111110169210632,-5.555555084605316,-3.901106609674528)"
    fill="#fff"
  ><g xmlns="http://www.w3.org/2000/svg"><g><circle
          fill="none"
          cx="69.734"
          cy="37.7"
          r="5.161"
        /><circle fill="none" cx="42.003" cy="57.167" r="5.16" /><circle
          fill="none"
          cx="26.666"
          cy="72.159"
          r="5.16"
        /><circle fill="none" cx="51.84" cy="27.84" r="5.16" /><ellipse
          fill="none"
          cx="26.666"
          cy="42.504"
          rx="5.159"
          ry="5.161"
        /><path
          d="M5.585,28.425H45.54c0.296,3.217,3.007,5.745,6.3,5.745c3.49,0,6.329-2.839,6.329-6.33c0-3.49-2.839-6.329-6.329-6.329    c-3.293,0-6.003,2.528-6.3,5.744H5.585C5.262,27.255,5,27.517,5,27.84S5.262,28.425,5.585,28.425z M51.84,22.68    c2.845,0,5.16,2.315,5.16,5.16c0,2.845-2.315,5.16-5.16,5.16c-2.845,0-5.16-2.315-5.16-5.16    C46.68,24.995,48.994,22.68,51.84,22.68z"
        /><path
          d="M42.004,63.497c3.49,0,6.33-2.839,6.33-6.329c0-3.491-2.839-6.33-6.33-6.33c-3.293,0-6.004,2.528-6.3,5.745H5.585    C5.262,56.583,5,56.844,5,57.168c0,0.323,0.262,0.584,0.585,0.584h30.118C36,60.969,38.71,63.497,42.004,63.497z M42.004,52.007    c2.845,0,5.16,2.315,5.16,5.16c0,2.845-2.315,5.16-5.16,5.16c-2.845,0-5.16-2.315-5.16-5.16    C36.843,54.322,39.158,52.007,42.004,52.007z"
        /><path
          d="M94.415,64.318H65.202c-0.155,0-0.304,0.061-0.413,0.171l-7.086,7.084H32.965c-0.296-3.217-3.007-5.744-6.3-5.744    c-3.489,0-6.327,2.839-6.327,6.329c0,3.491,2.838,6.331,6.327,6.331c3.293,0,6.004-2.529,6.3-5.746h24.98    c0.155,0,0.304-0.062,0.413-0.171l7.086-7.085h28.971c0.323,0,0.585-0.261,0.585-0.585C95,64.58,94.739,64.318,94.415,64.318z     M26.665,77.32c-2.844,0-5.158-2.316-5.158-5.161c0-2.845,2.314-5.16,5.158-5.16c2.845,0,5.16,2.315,5.16,5.16    C31.825,75.005,29.51,77.32,26.665,77.32z"
        /><path
          d="M94.415,54.483H65.641L53.246,42.091c-0.109-0.11-0.258-0.171-0.413-0.171H32.965c-0.296-3.218-3.007-5.747-6.3-5.747    c-3.489,0-6.327,2.84-6.327,6.332c0,3.491,2.838,6.33,6.327,6.33c3.293,0,6.004-2.528,6.3-5.745h19.626l12.394,12.392    c0.11,0.109,0.258,0.171,0.414,0.171h29.016c0.323,0,0.585-0.262,0.585-0.585C95,54.745,94.739,54.483,94.415,54.483z     M26.665,47.665c-2.844,0-5.158-2.315-5.158-5.16c0-2.846,2.314-5.162,5.158-5.162c2.845,0,5.16,2.316,5.16,5.162    C31.825,45.35,29.51,47.665,26.665,47.665z"
        /><path
          d="M69.734,44.031c3.293,0,6.004-2.529,6.3-5.746h18.381c0.323,0,0.585-0.262,0.585-0.585c0-0.323-0.261-0.585-0.585-0.585    H76.034c-0.296-3.217-3.007-5.746-6.3-5.746c-3.49,0-6.33,2.84-6.33,6.331C63.405,41.19,66.244,44.031,69.734,44.031z     M69.734,32.539c2.845,0,5.16,2.315,5.16,5.161c0,2.846-2.315,5.161-5.16,5.161c-2.845,0-5.16-2.315-5.16-5.161    C64.574,34.854,66.889,32.539,69.734,32.539z"
        /></g></g></g><g
    id="SvgjsG1929"
    featurekey="nameFeature-0"
    transform="matrix(1.8159312499778328,0,0,1.8159312499778328,114.7699350866092,-21.79003893434628)"
    fill="#fff"
  ><path
      d="M20.774 34.4932 c1.1958 -0.5516 2.2396 -1.3252 3.1278 -2.32 l4.68 1.5332 c-0.64596 0.94144 -1.3925 1.8016 -2.2395 2.5822 c-0.84792 0.77972 -1.7684 1.4458 -2.7641 1.9965 c-0.99568 0.55248 -2.0577 0.97556 -3.1871 1.271 c-1.1303 0.29633 -2.2999 0.44408 -3.5106 0.44408 c-3.8733 0 -7.1688 -1.3715 -9.8848 -4.1156 c-2.744 -2.7168 -4.1156 -6.0116 -4.1156 -9.8848 c0 -3.8462 1.3715 -7.1408 4.1156 -9.8848 c2.7168 -2.744 6.0116 -4.1156 9.8848 -4.1156 c1.9362 0 3.7518 0.36363 5.446 1.0909 c1.6941 0.72556 3.1872 1.7343 4.4784 3.0254 l-3.348 3.3086 c-1.8025 -1.8296 -3.994 -2.7439 -6.5764 -2.7439 c-2.5551 0 -4.7608 0.91432 -6.6164 2.7439 c-1.8025 1.8287 -2.7038 4.02 -2.7038 6.5752 s0.90124 4.7608 2.7038 6.6164 c1.8558 1.8025 4.0604 2.7038 6.6164 2.7038 c1.3986 0 2.6959 -0.27535 3.8934 -0.82696 z M27.152 34.1576 l-2.9957 -0.9816 c-0.87592 0.882 -1.8882 1.59 -3.0158 2.1102 c-1.3077 0.60228 -2.7413 0.90736 -4.2596 0.90736 c-2.778 0 -5.2088 -0.99216 -7.2256 -2.9502 c-1.9756 -2.035 -2.9686 -4.466 -2.9686 -7.244 c0 -2.7798 0.99392 -5.1984 2.9546 -7.1888 c2.0254 -1.9965 4.458 -3.0044 7.2396 -3.0044 c2.5149 0 4.7176 0.8086 6.5604 2.4048 l2.1041 -2.0787 c-1.0568 -0.9266 -2.2518 -1.6775 -3.5622 -2.2387 c-1.5787 -0.6766 -3.2946 -1.0192 -5.1024 -1.0192 c-3.6644 0 -6.694 1.2614 -9.2624 3.8567 c-2.6006 2.5997 -3.8628 5.6312 -3.8628 9.2692 c0 3.6644 1.2614 6.694 3.8567 9.2632 c2.5752 2.6014 5.6052 3.8628 9.2696 3.8628 c1.1303 0 2.237 -0.13984 3.2886 -0.4152 c1.0542 -0.27535 2.0586 -0.67572 2.9843 -1.1897 c0.9292 -0.51488 1.8025 -1.1452 2.5962 -1.8759 c0.5026 -0.46416 0.97204 -0.96156 1.4012 -1.4878 z M23.9 28.34 l-7.0202 0 l0 -4.64 l11.7 0 z M17.754 24.573999999999998 l0 2.8917 l5.7859 0 l2.917 -2.8917 l-8.703 0 z M51.283 12 l4.6732 0 l0 28.001 l-23.286 -20.923 l0 -7.0779 l18.613 16.76 l0 -16.76 z M55.082 38.0397 l0 -25.166 l-2.9249 0 l0 17.849 l-1.459 -1.3138 l-17.154 -15.446 l0 4.7247 z M60.06 39.61492 l4.6392 -4.2956 l14 0 l0 4.6802 l-18.639 0 l0 -0.38461 z M77.826 36.1944 l-12.783 0 l-3.167 2.9319 l15.95 0 l0 -2.9319 z M60.06 12 l18.64 0 l0 4.6802 l-14 0 z M77.826 15.806000000000001 l0 -2.9319 l-15.668 0 l2.9065 2.9319 l12.762 0 z M60.06 28.34 l0 -4.64 l18.639 0 l0 4.64 l-18.639 0 z M60.9341 24.573999999999998 l0 2.8917 l16.891 0 l0 -2.8917 l-16.891 0 z M102.76400000000001 26.605 c-1.076 1.5604 -2.4475 2.6765 -4.1136 3.3488 l5.7692 10.046 l-5.3664 0 l-8.1312 -14.018 l4.1776 0.018359 c1.264 0 2.3532 -0.4572 3.2684 -1.3715 c0.91348 -0.91432 1.3715 -2.0175 1.3715 -3.3086 c0 -1.264 -0.4572 -2.3541 -1.3715 -3.2684 c-0.91524 -0.91432 -2.0044 -1.3715 -3.2684 -1.3715 l-9.5736 0 l-2.7151 -4.68 l12.288 0 c2.5551 0 4.7468 0.91524 6.5752 2.744 c1.8296 1.8296 2.7439 4.0212 2.7439 6.576 c0 1.9362 -0.5516 3.6985 -1.6539 5.2852 z M102.90800000000002 39.1262 l-5.0176 -8.738 l-0.5 -0.87068 l0.93096 -0.375 c1.4974 -0.60316 2.7501 -1.6242 3.7221 -3.0342 c1.0105 -1.4528 1.5 -3.0184 1.5 -4.7884 c0 -2.3348 -0.81384 -4.284 -2.4878 -5.958 s-3.6233 -2.4878 -5.958 -2.4878 l-10.77 0 l1.702 2.9319 l9.0701 0 c1.4974 0 2.8052 0.54808 3.8856 1.6276 c1.0804 1.0813 1.6276 2.3891 1.6276 3.8865 c0 1.5254 -0.54724 2.8462 -1.6276 3.9266 c-1.0804 1.0796 -2.3882 1.6276 -3.8864 1.6276 l-2.6565 -0.011367 l7.1136 12.263 l3.3523 0 z M108.52000000000001 12.059999999999999 l4.64 4.6008 l0 18.6 l-4.64 4.68 l0 -27.881 z M112.28480000000002 34.900800000000004 l0 -17.877 l-2.8917 -2.8663 l0 23.66 z M138.13000000000002 26.082 c1.6137 1.5866 2.4196 3.5098 2.4205 5.7684 c0 2.2334 -0.80684 4.1556 -2.4205 5.77 c-1.5883 1.5875 -3.5106 2.3803 -5.77 2.3803 l0 -4.6802 c0.4834 0 0.94144 -0.087424 1.3715 -0.26312 c0.43008 -0.17394 0.80684 -0.41608 1.1294 -0.72556 c0.32344 -0.30945 0.57084 -0.68008 0.74652 -1.1102 c0.17394 -0.43008 0.26223 -0.88728 0.26223 -1.3715 c0 -0.9406 -0.34965 -1.7606 -1.049 -2.4608 c-0.67224 -0.69928 -1.4922 -1.049 -2.4608 -1.049 l-6.9792 0 c-2.2596 0 -4.1836 -0.79372 -5.7692 -2.3803 c-1.5883 -1.5866 -2.3812 -3.5228 -2.3812 -5.8096 c0 -2.2326 0.79372 -4.1416 2.3812 -5.7292 c1.5604 -1.6137 3.4835 -2.4214 5.7692 -2.4214 l0 4.681 c-0.4834 0 -0.94144 0.086524 -1.3715 0.26223 s-0.80684 0.42396 -1.1294 0.74652 c-0.32254 0.32254 -0.57168 0.70016 -0.74652 1.1302 s-0.26226 0.87416 -0.26226 1.3304 c0 0.96856 0.33566 1.8025 1.0088 2.5018 c0.67132 0.69928 1.5053 1.0481 2.5009 1.0481 l6.9792 0 c2.2596 0 4.1828 0.7946 5.7704 2.3812 z M137.51200000000003 37.0022 c1.4563 -1.4572 2.1634 -3.1426 2.1642 -5.1524 c0 -2.0341 -0.70628 -3.7169 -2.1591 -5.146 c-1.4354 -1.4354 -3.1207 -2.1303 -5.1564 -2.1303 l-6.9792 0 c-1.2378 0 -2.2911 -0.44232 -3.1312 -1.3164 c-0.83132 -0.86368 -1.2526 -1.9091 -1.2526 -3.1076 c0 -0.56908 0.10926 -1.1276 0.32606 -1.66 c0.21856 -0.53672 0.535 -1.0149 0.93888 -1.4188 c0.40296 -0.40388 0.88024 -0.7194 1.4178 -0.93796 c0.2666 -0.1084 0.5428 -0.19058 0.82692 -0.24476 l0 -2.9695 c-1.667 0.1757 -3.0691 0.87068 -4.2668 2.1093 c-1.4406 1.4406 -2.1356 3.112 -2.1356 5.1216 c0 2.0647 0.6958 3.7623 2.125 5.1916 s3.1137 2.1242 5.1512 2.1242 l6.9792 0 c1.2098 0 2.25 0.4432 3.091 1.3174 c0.85492 0.8558 1.2938 1.8916 1.2938 3.0674 c0 0.5944 -0.11016 1.1661 -0.32606 1.7002 c-0.22465 0.54808 -0.54456 1.0227 -0.95368 1.4135 c-0.40212 0.38461 -0.87504 0.68884 -1.4056 0.90388 c-0.26574 0.1084 -0.54196 0.19058 -0.82604 0.24476 l0 2.9686 c1.6522 -0.17394 3.0578 -0.85924 4.278 -2.0787 z"
    /></g><g
    id="SvgjsG1930"
    featurekey="sloganFeature-0"
    transform="matrix(2.123525335253717,0,0,2.123525335253717,116.3900063225232,58.598610705518254)"
    fill="#fff"
  ><path
      d="M11.96 6 c0.18 0 0.3 0.12 0.3 0.3 l0 13.4 c0 0.16 -0.1 0.28 -0.25 0.3 l-1.64 0 c-0.16 0 -0.28 -0.06 -0.36 -0.2 l-6.44 -11.04 l0 10.94 c0 0.18 -0.12 0.3 -0.3 0.3 l-1.27 0 c-0.18 0 -0.3 -0.12 -0.3 -0.3 l0 -13.4 c0 -0.17 0.1 -0.28 0.26 -0.3 l1.63 0 c0.16 0 0.28 0.06 0.36 0.2 l6.44 11.03 l0 -10.93 c0 -0.18 0.12 -0.3 0.3 -0.3 l1.27 0 z M25.390500000000003 18.3 c0.18 0 0.3 0.12 0.3 0.3 l0 1.1 c0 0.18 -0.12 0.3 -0.3 0.3 l-8.55 0 c-0.18 0 -0.3 -0.12 -0.3 -0.3 l0 -13.4 c0 -0.18 0.12 -0.3 0.3 -0.3 l8.53 0 c0.18 0 0.3 0.12 0.3 0.3 l0 1.1 c0 0.18 -0.12 0.3 -0.3 0.3 l-6.96 0 l0 4.15 l6.43 0 c0.18 0 0.3 0.12 0.3 0.3 l0 1.1 c0 0.18 -0.12 0.3 -0.3 0.3 l-6.43 0 l0 4.75 l6.98 0 z M39.461 19.64 c0.12 0.2 0.04 0.36 -0.2 0.36 l-1.34 0 c-0.16 0 -0.28 -0.06 -0.36 -0.2 l-3.36 -5.35 l-3.36 5.35 c-0.08 0.14 -0.2 0.2 -0.36 0.2 l-1.35 0 c-0.24 0 -0.32 -0.16 -0.2 -0.36 l4.26 -6.78 l-4.08 -6.5 c-0.12 -0.21 -0.04 -0.36 0.2 -0.36 l1.35 0 c0.16 0 0.28 0.06 0.36 0.2 l3.18 5.06 l3.18 -5.06 c0.08 -0.14 0.2 -0.2 0.36 -0.2 l1.34 0 c0.24 0 0.32 0.15 0.2 0.36 l-4.08 6.5 z M52.8515 6 c0.18 0 0.3 0.12 0.3 0.3 l0 1.1 c0 0.18 -0.12 0.3 -0.3 0.3 l-4.19 0 l0 12 c0 0.18 -0.12 0.3 -0.3 0.3 l-1.27 0 c-0.18 0 -0.3 -0.12 -0.3 -0.3 l0 -12 l-4.19 0 c-0.18 0 -0.3 -0.12 -0.3 -0.3 l0 -1.1 c0 -0.18 0.12 -0.3 0.3 -0.3 l10.25 0 z M65.532 18.3 c0.18 0 0.3 0.12 0.3 0.3 l0 1.1 c0 0.18 -0.12 0.3 -0.3 0.3 l-8.55 0 c-0.18 0 -0.3 -0.12 -0.3 -0.3 l0 -13.4 c0 -0.18 0.12 -0.3 0.3 -0.3 l8.53 0 c0.18 0 0.3 0.12 0.3 0.3 l0 1.1 c0 0.18 -0.12 0.3 -0.3 0.3 l-6.96 0 l0 4.15 l6.43 0 c0.18 0 0.3 0.12 0.3 0.3 l0 1.1 c0 0.18 -0.12 0.3 -0.3 0.3 l-6.43 0 l0 4.75 l6.98 0 z M80.4225 17.08 l0.8 0.84 c0.14 0.14 0.13 0.29 -0.01 0.42 c-1.28 1.22 -2.85 1.92 -4.77 1.92 c-3.98 0 -7.08 -3.2 -7.08 -7.2 c0 -4.03 3.1 -7.22 7.08 -7.22 c1.92 0 3.49 0.73 4.77 1.91 c0.14 0.13 0.15 0.28 0.01 0.42 l-0.8 0.85 c-0.14 0.14 -0.28 0.12 -0.42 0 c-0.99 -0.84 -2.11 -1.36 -3.56 -1.36 c-2.87 0 -5.17 2.31 -5.17 5.4 c0 3.06 2.3 5.37 5.17 5.37 c1.45 0 2.57 -0.51 3.56 -1.36 c0.14 -0.12 0.28 -0.13 0.42 0.01 z M95.583 6 c0.18 0 0.3 0.12 0.3 0.3 l0 13.4 c0 0.18 -0.12 0.3 -0.3 0.3 l-1.27 0 c-0.18 0 -0.3 -0.12 -0.3 -0.3 l0 -5.99 l-7.09 0 l0 5.99 c0 0.18 -0.12 0.3 -0.3 0.3 l-1.27 0 c-0.18 0 -0.3 -0.12 -0.3 -0.3 l0 -13.4 c0 -0.18 0.12 -0.3 0.3 -0.3 l1.27 0 c0.18 0 0.3 0.12 0.3 0.3 l0 5.71 l7.09 0 l0 -5.71 c0 -0.18 0.12 -0.3 0.3 -0.3 l1.27 0 z"
    /></g></svg>
